<svg width="600" height="600" viewBox="0 0 600 600" fill="none" xmlns="http://www.w3.org/2000/svg">
<rect width="600" height="600" fill="black"/>
<path d="M138.344 392V257.6H156.52V392H138.344ZM147.56 227.904C143.805 227.904 140.648 226.624 138.088 224.064C135.528 221.504 134.248 218.432 134.248 214.848C134.248 211.264 135.528 208.277 138.088 205.888C140.648 203.328 143.805 202.048 147.56 202.048C151.315 202.048 154.472 203.243 157.032 205.632C159.592 208.021 160.872 211.008 160.872 214.592C160.872 218.347 159.592 221.504 157.032 224.064C154.643 226.624 151.485 227.904 147.56 227.904ZM261.878 393.28C248.907 393.28 237.217 390.379 226.806 384.576C216.566 378.603 208.459 370.496 202.486 360.256C196.513 349.845 193.526 337.984 193.526 324.672C193.526 311.189 196.513 299.328 202.486 289.088C208.459 278.848 216.566 270.827 226.806 265.024C237.046 259.221 248.737 256.32 261.878 256.32C275.19 256.32 286.966 259.221 297.206 265.024C307.617 270.827 315.723 278.848 321.526 289.088C327.499 299.328 330.486 311.189 330.486 324.672C330.486 337.984 327.499 349.845 321.526 360.256C315.723 370.496 307.617 378.603 297.206 384.576C286.795 390.379 275.019 393.28 261.878 393.28ZM261.878 377.152C271.606 377.152 280.225 375.019 287.734 370.752C295.243 366.315 301.131 360.171 305.398 352.32C309.835 344.299 312.054 335.083 312.054 324.672C312.054 314.091 309.835 304.875 305.398 297.024C301.131 289.173 295.243 283.115 287.734 278.848C280.225 274.411 271.691 272.192 262.134 272.192C252.577 272.192 244.043 274.411 236.534 278.848C229.025 283.115 223.051 289.173 218.614 297.024C214.177 304.875 211.958 314.091 211.958 324.672C211.958 335.083 214.177 344.299 218.614 352.32C223.051 360.171 229.025 366.315 236.534 370.752C244.043 375.019 252.491 377.152 261.878 377.152ZM423.402 393.28C410.09 393.28 398.143 390.379 387.562 384.576C377.151 378.603 368.959 370.496 362.986 360.256C357.013 349.845 354.026 337.984 354.026 324.672C354.026 311.189 357.013 299.328 362.986 289.088C368.959 278.848 377.151 270.827 387.562 265.024C398.143 259.221 410.09 256.32 423.402 256.32C434.837 256.32 445.162 258.539 454.378 262.976C463.594 267.413 470.847 274.069 476.138 282.944L462.57 292.16C457.962 285.333 452.245 280.299 445.418 277.056C438.591 273.813 431.167 272.192 423.146 272.192C413.589 272.192 404.97 274.411 397.29 278.848C389.61 283.115 383.551 289.173 379.114 297.024C374.677 304.875 372.458 314.091 372.458 324.672C372.458 335.253 374.677 344.469 379.114 352.32C383.551 360.171 389.61 366.315 397.29 370.752C404.97 375.019 413.589 377.152 423.146 377.152C431.167 377.152 438.591 375.531 445.418 372.288C452.245 369.045 457.962 364.096 462.57 357.44L476.138 366.656C470.847 375.36 463.594 382.016 454.378 386.624C445.162 391.061 434.837 393.28 423.402 393.28Z" fill="white"/>
<path d="M139.28 432V418H140.76V432H139.28ZM150.375 421.4C151.228 421.4 151.975 421.567 152.615 421.9C153.268 422.22 153.775 422.713 154.135 423.38C154.508 424.047 154.695 424.887 154.695 425.9V432H153.275V426.04C153.275 424.933 152.995 424.1 152.435 423.54C151.888 422.967 151.115 422.68 150.115 422.68C149.368 422.68 148.715 422.833 148.155 423.14C147.608 423.433 147.182 423.867 146.875 424.44C146.582 425 146.435 425.68 146.435 426.48V432H145.015V421.5H146.375V424.38L146.155 423.84C146.488 423.08 147.022 422.487 147.755 422.06C148.488 421.62 149.362 421.4 150.375 421.4ZM162.711 432.1C161.711 432.1 160.811 431.873 160.011 431.42C159.224 430.967 158.604 430.34 158.151 429.54C157.697 428.727 157.471 427.793 157.471 426.74C157.471 425.673 157.697 424.74 158.151 423.94C158.604 423.14 159.224 422.52 160.011 422.08C160.811 421.627 161.711 421.4 162.711 421.4C163.631 421.4 164.451 421.607 165.171 422.02C165.904 422.433 166.484 423.04 166.911 423.84C167.351 424.627 167.571 425.593 167.571 426.74C167.571 427.873 167.357 428.84 166.931 429.64C166.504 430.44 165.924 431.053 165.191 431.48C164.471 431.893 163.644 432.1 162.711 432.1ZM162.811 430.84C163.557 430.84 164.224 430.673 164.811 430.34C165.411 429.993 165.877 429.513 166.211 428.9C166.557 428.273 166.731 427.553 166.731 426.74C166.731 425.913 166.557 425.193 166.211 424.58C165.877 423.967 165.411 423.493 164.811 423.16C164.224 422.813 163.557 422.64 162.811 422.64C162.077 422.64 161.417 422.813 160.831 423.16C160.244 423.493 159.777 423.967 159.431 424.58C159.084 425.193 158.911 425.913 158.911 426.74C158.911 427.553 159.084 428.273 159.431 428.9C159.777 429.513 160.244 429.993 160.831 430.34C161.417 430.673 162.077 430.84 162.811 430.84ZM166.771 432V428.84L166.911 426.72L166.711 424.6V417.16H168.131V432H166.771ZM172.085 432V421.5H173.505V432H172.085ZM172.805 419.18C172.512 419.18 172.265 419.08 172.065 418.88C171.865 418.68 171.765 418.44 171.765 418.16C171.765 417.88 171.865 417.647 172.065 417.46C172.265 417.26 172.512 417.16 172.805 417.16C173.099 417.16 173.345 417.253 173.545 417.44C173.745 417.627 173.845 417.86 173.845 418.14C173.845 418.433 173.745 418.68 173.545 418.88C173.359 419.08 173.112 419.18 172.805 419.18ZM184.037 432V429.68L183.977 429.3V425.42C183.977 424.527 183.723 423.84 183.217 423.36C182.723 422.88 181.983 422.64 180.997 422.64C180.317 422.64 179.67 422.753 179.057 422.98C178.443 423.207 177.923 423.507 177.497 423.88L176.857 422.82C177.39 422.367 178.03 422.02 178.777 421.78C179.523 421.527 180.31 421.4 181.137 421.4C182.497 421.4 183.543 421.74 184.277 422.42C185.023 423.087 185.397 424.107 185.397 425.48V432H184.037ZM180.417 432.1C179.63 432.1 178.943 431.973 178.357 431.72C177.783 431.453 177.343 431.093 177.037 430.64C176.73 430.173 176.577 429.64 176.577 429.04C176.577 428.493 176.703 428 176.957 427.56C177.223 427.107 177.65 426.747 178.237 426.48C178.837 426.2 179.637 426.06 180.637 426.06H184.257V427.12H180.677C179.663 427.12 178.957 427.3 178.557 427.66C178.17 428.02 177.977 428.467 177.977 429C177.977 429.6 178.21 430.08 178.677 430.44C179.143 430.8 179.797 430.98 180.637 430.98C181.437 430.98 182.123 430.8 182.697 430.44C183.283 430.067 183.71 429.533 183.977 428.84L184.297 429.82C184.03 430.513 183.563 431.067 182.897 431.48C182.243 431.893 181.417 432.1 180.417 432.1ZM194.613 421.4C195.467 421.4 196.213 421.567 196.853 421.9C197.507 422.22 198.013 422.713 198.373 423.38C198.747 424.047 198.933 424.887 198.933 425.9V432H197.513V426.04C197.513 424.933 197.233 424.1 196.673 423.54C196.127 422.967 195.353 422.68 194.353 422.68C193.607 422.68 192.953 422.833 192.393 423.14C191.847 423.433 191.42 423.867 191.113 424.44C190.82 425 190.673 425.68 190.673 426.48V432H189.253V421.5H190.613V424.38L190.393 423.84C190.727 423.08 191.26 422.487 191.993 422.06C192.727 421.62 193.6 421.4 194.613 421.4ZM214.423 432.12C213.37 432.12 212.39 431.947 211.483 431.6C210.59 431.24 209.81 430.74 209.143 430.1C208.49 429.447 207.977 428.693 207.603 427.84C207.243 426.973 207.063 426.027 207.063 425C207.063 423.973 207.243 423.033 207.603 422.18C207.977 421.313 208.49 420.56 209.143 419.92C209.81 419.267 210.59 418.767 211.483 418.42C212.377 418.06 213.357 417.88 214.423 417.88C215.477 417.88 216.45 418.06 217.343 418.42C218.237 418.767 219.01 419.26 219.663 419.9C220.33 420.54 220.843 421.293 221.203 422.16C221.577 423.027 221.763 423.973 221.763 425C221.763 426.027 221.577 426.973 221.203 427.84C220.843 428.707 220.33 429.46 219.663 430.1C219.01 430.74 218.237 431.24 217.343 431.6C216.45 431.947 215.477 432.12 214.423 432.12ZM214.423 430.8C215.263 430.8 216.037 430.66 216.743 430.38C217.463 430.087 218.083 429.68 218.603 429.16C219.137 428.627 219.55 428.013 219.843 427.32C220.137 426.613 220.283 425.84 220.283 425C220.283 424.16 220.137 423.393 219.843 422.7C219.55 421.993 219.137 421.38 218.603 420.86C218.083 420.327 217.463 419.92 216.743 419.64C216.037 419.347 215.263 419.2 214.423 419.2C213.583 419.2 212.803 419.347 212.083 419.64C211.363 419.92 210.737 420.327 210.203 420.86C209.683 421.38 209.27 421.993 208.963 422.7C208.67 423.393 208.523 424.16 208.523 425C208.523 425.827 208.67 426.593 208.963 427.3C209.27 428.007 209.683 428.627 210.203 429.16C210.737 429.68 211.363 430.087 212.083 430.38C212.803 430.66 213.583 430.8 214.423 430.8ZM230.201 432.1C229.294 432.1 228.474 431.893 227.741 431.48C227.007 431.053 226.421 430.447 225.981 429.66C225.554 428.86 225.341 427.887 225.341 426.74C225.341 425.593 225.554 424.627 225.981 423.84C226.407 423.04 226.987 422.433 227.721 422.02C228.454 421.607 229.281 421.4 230.201 421.4C231.201 421.4 232.094 421.627 232.881 422.08C233.681 422.52 234.307 423.147 234.761 423.96C235.214 424.76 235.441 425.687 235.441 426.74C235.441 427.807 235.214 428.74 234.761 429.54C234.307 430.34 233.681 430.967 232.881 431.42C232.094 431.873 231.201 432.1 230.201 432.1ZM224.781 435.88V421.5H226.141V424.66L226.001 426.76L226.201 428.88V435.88H224.781ZM230.101 430.84C230.847 430.84 231.514 430.673 232.101 430.34C232.687 429.993 233.154 429.513 233.501 428.9C233.847 428.273 234.021 427.553 234.021 426.74C234.021 425.927 233.847 425.213 233.501 424.6C233.154 423.987 232.687 423.507 232.101 423.16C231.514 422.813 230.847 422.64 230.101 422.64C229.354 422.64 228.681 422.813 228.081 423.16C227.494 423.507 227.027 423.987 226.681 424.6C226.347 425.213 226.181 425.927 226.181 426.74C226.181 427.553 226.347 428.273 226.681 428.9C227.027 429.513 227.494 429.993 228.081 430.34C228.681 430.673 229.354 430.84 230.101 430.84ZM242.795 432.1C241.702 432.1 240.742 431.873 239.915 431.42C239.089 430.953 238.442 430.32 237.975 429.52C237.509 428.707 237.275 427.78 237.275 426.74C237.275 425.7 237.495 424.78 237.935 423.98C238.389 423.18 239.002 422.553 239.775 422.1C240.562 421.633 241.442 421.4 242.415 421.4C243.402 421.4 244.275 421.627 245.035 422.08C245.809 422.52 246.415 423.147 246.855 423.96C247.295 424.76 247.515 425.687 247.515 426.74C247.515 426.807 247.509 426.88 247.495 426.96C247.495 427.027 247.495 427.1 247.495 427.18H238.355V426.12H246.735L246.175 426.54C246.175 425.78 246.009 425.107 245.675 424.52C245.355 423.92 244.915 423.453 244.355 423.12C243.795 422.787 243.149 422.62 242.415 422.62C241.695 422.62 241.049 422.787 240.475 423.12C239.902 423.453 239.455 423.92 239.135 424.52C238.815 425.12 238.655 425.807 238.655 426.58V426.8C238.655 427.6 238.829 428.307 239.175 428.92C239.535 429.52 240.029 429.993 240.655 430.34C241.295 430.673 242.022 430.84 242.835 430.84C243.475 430.84 244.069 430.727 244.615 430.5C245.175 430.273 245.655 429.927 246.055 429.46L246.855 430.38C246.389 430.94 245.802 431.367 245.095 431.66C244.402 431.953 243.635 432.1 242.795 432.1ZM255.766 421.4C256.619 421.4 257.366 421.567 258.006 421.9C258.659 422.22 259.166 422.713 259.526 423.38C259.899 424.047 260.086 424.887 260.086 425.9V432H258.666V426.04C258.666 424.933 258.386 424.1 257.826 423.54C257.279 422.967 256.506 422.68 255.506 422.68C254.759 422.68 254.106 422.833 253.546 423.14C252.999 423.433 252.572 423.867 252.266 424.44C251.972 425 251.826 425.68 251.826 426.48V432H250.406V421.5H251.766V424.38L251.546 423.84C251.879 423.08 252.412 422.487 253.146 422.06C253.879 421.62 254.752 421.4 255.766 421.4ZM266.741 432.1C265.875 432.1 265.055 431.98 264.281 431.74C263.508 431.487 262.901 431.173 262.461 430.8L263.101 429.68C263.528 430 264.075 430.28 264.741 430.52C265.408 430.747 266.108 430.86 266.841 430.86C267.841 430.86 268.561 430.707 269.001 430.4C269.441 430.08 269.661 429.66 269.661 429.14C269.661 428.753 269.535 428.453 269.281 428.24C269.041 428.013 268.721 427.847 268.321 427.74C267.921 427.62 267.475 427.52 266.981 427.44C266.488 427.36 265.995 427.267 265.501 427.16C265.021 427.053 264.581 426.9 264.181 426.7C263.781 426.487 263.455 426.2 263.201 425.84C262.961 425.48 262.841 425 262.841 424.4C262.841 423.827 263.001 423.313 263.321 422.86C263.641 422.407 264.108 422.053 264.721 421.8C265.348 421.533 266.108 421.4 267.001 421.4C267.681 421.4 268.361 421.493 269.041 421.68C269.721 421.853 270.281 422.087 270.721 422.38L270.101 423.52C269.635 423.2 269.135 422.973 268.601 422.84C268.068 422.693 267.535 422.62 267.001 422.62C266.055 422.62 265.355 422.787 264.901 423.12C264.461 423.44 264.241 423.853 264.241 424.36C264.241 424.76 264.361 425.073 264.601 425.3C264.855 425.527 265.181 425.707 265.581 425.84C265.995 425.96 266.441 426.06 266.921 426.14C267.415 426.22 267.901 426.32 268.381 426.44C268.875 426.547 269.321 426.7 269.721 426.9C270.135 427.087 270.461 427.36 270.701 427.72C270.955 428.067 271.081 428.527 271.081 429.1C271.081 429.713 270.908 430.247 270.561 430.7C270.228 431.14 269.735 431.487 269.081 431.74C268.441 431.98 267.661 432.1 266.741 432.1ZM277.967 432.1C276.954 432.1 276.04 431.873 275.227 431.42C274.427 430.953 273.794 430.32 273.327 429.52C272.86 428.707 272.627 427.78 272.627 426.74C272.627 425.687 272.86 424.76 273.327 423.96C273.794 423.16 274.427 422.533 275.227 422.08C276.027 421.627 276.94 421.4 277.967 421.4C279.007 421.4 279.927 421.627 280.727 422.08C281.54 422.533 282.174 423.16 282.627 423.96C283.094 424.76 283.327 425.687 283.327 426.74C283.327 427.78 283.094 428.707 282.627 429.52C282.174 430.32 281.54 430.953 280.727 431.42C279.914 431.873 278.994 432.1 277.967 432.1ZM277.967 430.84C278.727 430.84 279.4 430.673 279.987 430.34C280.574 429.993 281.034 429.513 281.367 428.9C281.714 428.273 281.887 427.553 281.887 426.74C281.887 425.913 281.714 425.193 281.367 424.58C281.034 423.967 280.574 423.493 279.987 423.16C279.4 422.813 278.734 422.64 277.987 422.64C277.24 422.64 276.574 422.813 275.987 423.16C275.4 423.493 274.934 423.967 274.587 424.58C274.24 425.193 274.067 425.913 274.067 426.74C274.067 427.553 274.24 428.273 274.587 428.9C274.934 429.513 275.4 429.993 275.987 430.34C276.574 430.673 277.234 430.84 277.967 430.84ZM290.566 432.1C289.673 432.1 288.893 431.933 288.226 431.6C287.559 431.267 287.039 430.767 286.666 430.1C286.306 429.433 286.126 428.6 286.126 427.6V421.5H287.546V427.44C287.546 428.56 287.819 429.407 288.366 429.98C288.926 430.54 289.706 430.82 290.706 430.82C291.439 430.82 292.073 430.673 292.606 430.38C293.153 430.073 293.566 429.633 293.846 429.06C294.139 428.487 294.286 427.8 294.286 427V421.5H295.706V432H294.346V429.12L294.566 429.64C294.233 430.413 293.713 431.02 293.006 431.46C292.313 431.887 291.499 432.1 290.566 432.1ZM299.664 432V421.5H301.024V424.36L300.884 423.86C301.177 423.06 301.67 422.453 302.364 422.04C303.057 421.613 303.917 421.4 304.944 421.4V422.78C304.89 422.78 304.837 422.78 304.784 422.78C304.73 422.767 304.677 422.76 304.624 422.76C303.517 422.76 302.65 423.1 302.024 423.78C301.397 424.447 301.084 425.4 301.084 426.64V432H299.664ZM311.797 432.1C310.757 432.1 309.824 431.873 308.997 431.42C308.184 430.953 307.544 430.32 307.077 429.52C306.61 428.707 306.377 427.78 306.377 426.74C306.377 425.687 306.61 424.76 307.077 423.96C307.544 423.16 308.184 422.533 308.997 422.08C309.824 421.627 310.757 421.4 311.797 421.4C312.69 421.4 313.497 421.573 314.217 421.92C314.937 422.267 315.504 422.787 315.917 423.48L314.857 424.2C314.497 423.667 314.05 423.273 313.517 423.02C312.984 422.767 312.404 422.64 311.777 422.64C311.03 422.64 310.357 422.813 309.757 423.16C309.157 423.493 308.684 423.967 308.337 424.58C307.99 425.193 307.817 425.913 307.817 426.74C307.817 427.567 307.99 428.287 308.337 428.9C308.684 429.513 309.157 429.993 309.757 430.34C310.357 430.673 311.03 430.84 311.777 430.84C312.404 430.84 312.984 430.713 313.517 430.46C314.05 430.207 314.497 429.82 314.857 429.3L315.917 430.02C315.504 430.7 314.937 431.22 314.217 431.58C313.497 431.927 312.69 432.1 311.797 432.1ZM322.991 432.1C321.897 432.1 320.937 431.873 320.111 431.42C319.284 430.953 318.637 430.32 318.171 429.52C317.704 428.707 317.471 427.78 317.471 426.74C317.471 425.7 317.691 424.78 318.131 423.98C318.584 423.18 319.197 422.553 319.971 422.1C320.757 421.633 321.637 421.4 322.611 421.4C323.597 421.4 324.471 421.627 325.231 422.08C326.004 422.52 326.611 423.147 327.051 423.96C327.491 424.76 327.711 425.687 327.711 426.74C327.711 426.807 327.704 426.88 327.691 426.96C327.691 427.027 327.691 427.1 327.691 427.18H318.551V426.12H326.931L326.371 426.54C326.371 425.78 326.204 425.107 325.871 424.52C325.551 423.92 325.111 423.453 324.551 423.12C323.991 422.787 323.344 422.62 322.611 422.62C321.891 422.62 321.244 422.787 320.671 423.12C320.097 423.453 319.651 423.92 319.331 424.52C319.011 425.12 318.851 425.807 318.851 426.58V426.8C318.851 427.6 319.024 428.307 319.371 428.92C319.731 429.52 320.224 429.993 320.851 430.34C321.491 430.673 322.217 430.84 323.031 430.84C323.671 430.84 324.264 430.727 324.811 430.5C325.371 430.273 325.851 429.927 326.251 429.46L327.051 430.38C326.584 430.94 325.997 431.367 325.291 431.66C324.597 431.953 323.831 432.1 322.991 432.1ZM342.215 432.12C341.162 432.12 340.189 431.947 339.295 431.6C338.402 431.24 337.629 430.74 336.975 430.1C336.322 429.46 335.809 428.707 335.435 427.84C335.075 426.973 334.895 426.027 334.895 425C334.895 423.973 335.075 423.027 335.435 422.16C335.809 421.293 336.322 420.54 336.975 419.9C337.642 419.26 338.422 418.767 339.315 418.42C340.209 418.06 341.182 417.88 342.235 417.88C343.249 417.88 344.202 418.053 345.095 418.4C345.989 418.733 346.742 419.24 347.355 419.92L346.415 420.86C345.842 420.273 345.209 419.853 344.515 419.6C343.822 419.333 343.075 419.2 342.275 419.2C341.435 419.2 340.655 419.347 339.935 419.64C339.215 419.92 338.589 420.327 338.055 420.86C337.522 421.38 337.102 421.993 336.795 422.7C336.502 423.393 336.355 424.16 336.355 425C336.355 425.84 336.502 426.613 336.795 427.32C337.102 428.013 337.522 428.627 338.055 429.16C338.589 429.68 339.215 430.087 339.935 430.38C340.655 430.66 341.435 430.8 342.275 430.8C343.075 430.8 343.822 430.667 344.515 430.4C345.209 430.133 345.842 429.707 346.415 429.12L347.355 430.06C346.742 430.74 345.989 431.253 345.095 431.6C344.202 431.947 343.242 432.12 342.215 432.12ZM354.022 432.1C353.008 432.1 352.095 431.873 351.282 431.42C350.482 430.953 349.848 430.32 349.382 429.52C348.915 428.707 348.682 427.78 348.682 426.74C348.682 425.687 348.915 424.76 349.382 423.96C349.848 423.16 350.482 422.533 351.282 422.08C352.082 421.627 352.995 421.4 354.022 421.4C355.062 421.4 355.982 421.627 356.782 422.08C357.595 422.533 358.228 423.16 358.682 423.96C359.148 424.76 359.382 425.687 359.382 426.74C359.382 427.78 359.148 428.707 358.682 429.52C358.228 430.32 357.595 430.953 356.782 431.42C355.968 431.873 355.048 432.1 354.022 432.1ZM354.022 430.84C354.782 430.84 355.455 430.673 356.042 430.34C356.628 429.993 357.088 429.513 357.422 428.9C357.768 428.273 357.942 427.553 357.942 426.74C357.942 425.913 357.768 425.193 357.422 424.58C357.088 423.967 356.628 423.493 356.042 423.16C355.455 422.813 354.788 422.64 354.042 422.64C353.295 422.64 352.628 422.813 352.042 423.16C351.455 423.493 350.988 423.967 350.642 424.58C350.295 425.193 350.122 425.913 350.122 426.74C350.122 427.553 350.295 428.273 350.642 428.9C350.988 429.513 351.455 429.993 352.042 430.34C352.628 430.673 353.288 430.84 354.022 430.84ZM375.401 421.4C376.254 421.4 376.994 421.567 377.621 421.9C378.261 422.22 378.754 422.713 379.101 423.38C379.461 424.047 379.641 424.887 379.641 425.9V432H378.221V426.04C378.221 424.933 377.954 424.1 377.421 423.54C376.901 422.967 376.161 422.68 375.201 422.68C374.481 422.68 373.854 422.833 373.321 423.14C372.801 423.433 372.394 423.867 372.101 424.44C371.821 425 371.681 425.68 371.681 426.48V432H370.261V426.04C370.261 424.933 369.994 424.1 369.461 423.54C368.927 422.967 368.181 422.68 367.221 422.68C366.514 422.68 365.894 422.833 365.361 423.14C364.827 423.433 364.414 423.867 364.121 424.44C363.841 425 363.701 425.68 363.701 426.48V432H362.281V421.5H363.641V424.34L363.421 423.84C363.741 423.08 364.254 422.487 364.961 422.06C365.681 421.62 366.527 421.4 367.501 421.4C368.527 421.4 369.401 421.66 370.121 422.18C370.841 422.687 371.307 423.453 371.521 424.48L370.961 424.26C371.267 423.407 371.807 422.72 372.581 422.2C373.367 421.667 374.307 421.4 375.401 421.4ZM396.612 421.4C397.465 421.4 398.205 421.567 398.832 421.9C399.472 422.22 399.965 422.713 400.312 423.38C400.672 424.047 400.852 424.887 400.852 425.9V432H399.432V426.04C399.432 424.933 399.165 424.1 398.632 423.54C398.112 422.967 397.372 422.68 396.412 422.68C395.692 422.68 395.065 422.833 394.532 423.14C394.012 423.433 393.605 423.867 393.312 424.44C393.032 425 392.892 425.68 392.892 426.48V432H391.472V426.04C391.472 424.933 391.205 424.1 390.672 423.54C390.138 422.967 389.392 422.68 388.432 422.68C387.725 422.68 387.105 422.833 386.572 423.14C386.038 423.433 385.625 423.867 385.332 424.44C385.052 425 384.912 425.68 384.912 426.48V432H383.492V421.5H384.852V424.34L384.632 423.84C384.952 423.08 385.465 422.487 386.172 422.06C386.892 421.62 387.738 421.4 388.712 421.4C389.738 421.4 390.612 421.66 391.332 422.18C392.052 422.687 392.518 423.453 392.732 424.48L392.172 424.26C392.478 423.407 393.018 422.72 393.792 422.2C394.578 421.667 395.518 421.4 396.612 421.4ZM409.043 432.1C408.149 432.1 407.369 431.933 406.703 431.6C406.036 431.267 405.516 430.767 405.143 430.1C404.783 429.433 404.603 428.6 404.603 427.6V421.5H406.023V427.44C406.023 428.56 406.296 429.407 406.843 429.98C407.403 430.54 408.183 430.82 409.183 430.82C409.916 430.82 410.549 430.673 411.083 430.38C411.629 430.073 412.043 429.633 412.323 429.06C412.616 428.487 412.763 427.8 412.763 427V421.5H414.183V432H412.823V429.12L413.043 429.64C412.709 430.413 412.189 431.02 411.483 431.46C410.789 431.887 409.976 432.1 409.043 432.1ZM423.5 421.4C424.353 421.4 425.1 421.567 425.74 421.9C426.393 422.22 426.9 422.713 427.26 423.38C427.633 424.047 427.82 424.887 427.82 425.9V432H426.4V426.04C426.4 424.933 426.12 424.1 425.56 423.54C425.013 422.967 424.24 422.68 423.24 422.68C422.493 422.68 421.84 422.833 421.28 423.14C420.733 423.433 420.307 423.867 420 424.44C419.707 425 419.56 425.68 419.56 426.48V432H418.14V421.5H419.5V424.38L419.28 423.84C419.613 423.08 420.147 422.487 420.88 422.06C421.613 421.62 422.487 421.4 423.5 421.4ZM431.656 432V421.5H433.076V432H431.656ZM432.376 419.18C432.082 419.18 431.836 419.08 431.636 418.88C431.436 418.68 431.336 418.44 431.336 418.16C431.336 417.88 431.436 417.647 431.636 417.46C431.836 417.26 432.082 417.16 432.376 417.16C432.669 417.16 432.916 417.253 433.116 417.44C433.316 417.627 433.416 417.86 433.416 418.14C433.416 418.433 433.316 418.68 433.116 418.88C432.929 419.08 432.682 419.18 432.376 419.18ZM440.347 432.1C439.36 432.1 438.6 431.833 438.067 431.3C437.534 430.767 437.267 430.013 437.267 429.04V419.18H438.687V428.96C438.687 429.573 438.84 430.047 439.147 430.38C439.467 430.713 439.92 430.88 440.507 430.88C441.134 430.88 441.654 430.7 442.067 430.34L442.567 431.36C442.287 431.613 441.947 431.8 441.547 431.92C441.16 432.04 440.76 432.1 440.347 432.1ZM435.387 422.68V421.5H441.887V422.68H435.387ZM445.037 435.98C444.543 435.98 444.07 435.9 443.617 435.74C443.177 435.58 442.797 435.34 442.477 435.02L443.137 433.96C443.403 434.213 443.69 434.407 443.997 434.54C444.317 434.687 444.67 434.76 445.057 434.76C445.523 434.76 445.923 434.627 446.257 434.36C446.603 434.107 446.93 433.653 447.237 433L447.917 431.46L448.077 431.24L452.397 421.5H453.797L448.537 433.26C448.243 433.94 447.917 434.48 447.557 434.88C447.21 435.28 446.83 435.56 446.417 435.72C446.003 435.893 445.543 435.98 445.037 435.98ZM447.837 432.3L442.997 421.5H444.477L448.757 431.14L447.837 432.3Z" fill="white"/>
</svg>
